<?xml version="1.0" standalone="no"?>
<!DOCTYPE svg PUBLIC "-//W3C//DTD SVG 1.1//EN" "http://www.w3.org/Graphics/SVG/1.1/DTD/svg11.dtd" >
<svg>
<metadata>
Created by FontForge 20090622 at Thu Aug 10 07:03:35 2017
 By deploy user
Copyright (C) 1993; Type Market Ltd. Moscow, 119136, Box 20; phone:(095)2071022; Created by A.Kustov
</metadata>
<defs>
<font id="HeliosCondBlackC" horiz-adv-x="484" >
  <font-face 
    font-family="HeliosCondBlackC"
    font-weight="900"
    font-stretch="normal"
    units-per-em="1000"
    panose-1="0 0 10 0 0 0 0 0 0 0"
    ascent="817"
    descent="-183"
    x-height="538"
    cap-height="718"
    bbox="-40 -183 1140 927"
    underline-thickness="50"
    underline-position="-50"
    unicode-range="U+0020-U+2122"
  />
<missing-glyph horiz-adv-x="500" 
 />
    <glyph glyph-name=".notdef" horiz-adv-x="500" 
 />
    <glyph glyph-name=".null" horiz-adv-x="0" 
 />
    <glyph glyph-name="nonmarkingreturn" horiz-adv-x="333" 
 />
    <glyph glyph-name="space" unicode=" " horiz-adv-x="262" 
 />
    <glyph glyph-name="space" unicode="&#xa0;" horiz-adv-x="262" 
 />
    <glyph glyph-name="exclam" unicode="!" horiz-adv-x="327" 
d="M77 0v167h157v-167h-157zM77 726h157v-172l-36 -320h-84l-37 320v172z" />
    <glyph glyph-name="quotedbl" unicode="&#x22;" horiz-adv-x="354" 
d="M35 448v270h113v-270h-113zM218 448v270h113v-270h-113z" />
    <glyph glyph-name="numbersign" unicode="#" 
d="M90 211h-82v108h98l15 97h-90v106h105l31 204h90l-30 -204h76l29 204h92l-30 -204h82v-106h-98l-15 -97h84v-108h-99l-29 -211h-92l30 211h-75l-30 -211h-90zM273 319l15 97h-77l-13 -97h75z" />
    <glyph glyph-name="dollar" unicode="$" horiz-adv-x="514" 
d="M34 246h159v-50q0 -47 16 -65t50 -18q26 0 42.5 20t16.5 53q0 32 -24.5 57t-100.5 74q-87 57 -118 103.5t-31 117.5q0 81 47 134t126 61v99h83v-99q77 -12 123 -65.5t46 -153.5v-10h-151v20q0 86 -61 86q-25 0 -38.5 -14.5t-13.5 -38.5q0 -28 19.5 -52t75.5 -57
q105 -63 141 -114.5t36 -133.5q0 -99 -48.5 -154t-128.5 -63v-99h-83v99q-92 8 -137.5 64.5t-45.5 167.5v31z" />
    <glyph glyph-name="percent" unicode="%" horiz-adv-x="807" 
d="M174 628q-24 0 -31 -23.5t-7 -74.5q0 -48 7.5 -73.5t30.5 -25.5q22 0 29.5 25.5t7.5 73.5q0 51 -7 74.5t-30 23.5zM174 711q80 0 119 -43t39 -138t-39 -138.5t-119 -43.5t-119.5 43.5t-39.5 138.5t39.5 138t119.5 43zM628 272q-24 0 -31 -23.5t-7 -74.5q0 -48 7.5 -73.5
t30.5 -25.5q22 0 29.5 25.5t7.5 73.5q0 51 -7 74.5t-30 23.5zM628 355q80 0 119 -43t39 -138t-39 -138.5t-119 -43.5t-119.5 43.5t-39.5 138.5t39.5 138t119.5 43zM197 -23l325 742h82l-324 -742h-83z" />
    <glyph glyph-name="ampersand" unicode="&#x26;" horiz-adv-x="641" 
d="M299 627q-46 0 -46 -43q0 -17 10 -44.5t25 -47.5q54 39 54 88q0 47 -43 47zM355 152l-113 167q-44 -53 -44 -104q0 -41 25 -72t63 -31q45 0 69 40zM522 159l106 -159h-175l-29 46q-59 -62 -161 -62q-96 0 -158.5 53t-62.5 163q0 139 133 224q-60 82 -60 154
q0 84 54 119.5t131 35.5q87 0 131.5 -41.5t44.5 -111.5q0 -51 -32.5 -101t-80.5 -78l77 -113q15 35 15 67q0 21 -2 31h136q0 -124 -67 -227z" />
    <glyph glyph-name="quotesingle" unicode="'" horiz-adv-x="167" 
d="M7 448v270h113v-270h-113z" />
    <glyph glyph-name="parenleft" unicode="(" horiz-adv-x="300" 
d="M158 -174q-115 238 -115 470q0 223 107 422h121q-32 -70 -55 -188t-23 -247q0 -244 86 -457h-121z" />
    <glyph glyph-name="parenright" unicode=")" horiz-adv-x="310" 
d="M16 -174q80 202 80 434q0 130 -23 251t-57 207h121q109 -215 109 -460q0 -237 -109 -432h-121z" />
    <glyph glyph-name="asterisk" unicode="*" 
d="M167 530l-113 38l30 83l106 -39v106h90v-106l106 39l30 -83l-113 -30l83 -98l-75 -54l-77 90l-67 -90l-77 54z" />
    <glyph glyph-name="plus" unicode="+" horiz-adv-x="480" 
d="M185 296v177h111v-177h160v-111h-160v-177h-111v177h-160v111h160z" />
    <glyph glyph-name="comma" unicode="," horiz-adv-x="326" 
d="M167 0h-91v167h157v-167q0 -59 -42.5 -97.5t-114.5 -38.5v52q40 0 65.5 22.5t25.5 61.5z" />
    <glyph glyph-name="hyphen" unicode="-" horiz-adv-x="320" 
d="M30 296h260v-111h-260v111z" />
    <glyph glyph-name="hyphen" unicode="&#xad;" horiz-adv-x="320" 
d="M30 296h260v-111h-260v111z" />
    <glyph glyph-name="period" unicode="." horiz-adv-x="326" 
d="M84 0v167h157v-167h-157z" />
    <glyph glyph-name="slash" unicode="/" horiz-adv-x="270" 
d="M0 -90l213 808h105l-211 -808h-107z" />
    <glyph glyph-name="zero" unicode="0" horiz-adv-x="501" 
d="M246 597q-31 0 -41.5 -17.5t-10.5 -55.5v-345q0 -38 10.5 -55.5t41.5 -17.5q33 0 46.5 18t13.5 55v345q0 37 -13.5 55t-46.5 18zM35 521q0 40 10.5 73.5t33.5 62.5t66 45t103 16q217 0 217 -197v-338q0 -198 -217 -198q-60 0 -103 16.5t-66 45.5t-33.5 62.5t-10.5 73.5
v338z" />
    <glyph glyph-name="one" unicode="1" horiz-adv-x="501" 
d="M194 0v485h-147v111h11q70 0 120 29t60 78h110v-703h-154z" />
    <glyph glyph-name="two" unicode="2" horiz-adv-x="501" 
d="M32 0q0 62 17 117.5t48 100t58.5 75t66 67t52.5 52.5q33 37 33 104q0 37 -12.5 56t-44.5 19t-47 -27.5t-15 -92.5h-156q0 108 55.5 177.5t169.5 69.5q93 0 151 -52.5t58 -143.5q0 -65 -20 -111t-58 -91q-13 -16 -57 -55.5t-76 -75t-35 -60.5h258v-129h-446z" />
    <glyph glyph-name="three" unicode="3" horiz-adv-x="501" 
d="M183 490h-152v20q0 89 53.5 148.5t160.5 59.5q91 0 147 -49.5t56 -129.5q0 -59 -21 -97.5t-79 -54.5q71 -28 93 -69.5t22 -120.5q0 -212 -220 -212q-97 0 -154.5 56t-57.5 168v35h152v-27q0 -103 60 -103q35 0 48 23.5t13 82.5q0 55 -22 74.5t-80 19.5h-35v113h24
q60 0 82.5 18.5t22.5 76.5q0 32 -13.5 53.5t-40.5 21.5t-43 -18.5t-16 -50.5v-38z" />
    <glyph glyph-name="four" unicode="4" horiz-adv-x="502" 
d="M245 703h168v-446h66v-119h-66v-138h-152v138h-234v153zM261 257v234l-117 -234h117z" />
    <glyph glyph-name="five" unicode="5" horiz-adv-x="501" 
d="M192 583l-13 -152q24 27 50.5 41.5t72.5 14.5q161 0 161 -237q0 -146 -51.5 -205.5t-157.5 -59.5q-113 0 -163 54t-50 177h151q1 -62 14 -86.5t43 -24.5t42.5 28.5t12.5 110.5q0 71 -13 97.5t-44 26.5q-45 0 -55 -52h-143l20 387h368v-120h-245z" />
    <glyph glyph-name="six" unicode="6" horiz-adv-x="501" 
d="M191 236q0 -72 11 -97.5t44 -25.5q35 0 46.5 24.5t11.5 97.5q0 55 -12.5 82t-45.5 27t-44 -26t-11 -82zM191 406q39 61 113 61q152 0 152 -217v-23q0 -242 -210 -242q-39 0 -74 10.5t-66 32.5t-49 64t-18 99v331q0 97 56.5 146.5t146.5 49.5q96 0 152 -46t56 -143h-152
q0 29 -14.5 46.5t-41.5 17.5q-51 0 -51 -64v-123z" />
    <glyph glyph-name="seven" unicode="7" horiz-adv-x="501" 
d="M293 0h-169q19 164 59 279.5t125 294.5h-271v129h424v-117q-148 -266 -168 -586z" />
    <glyph glyph-name="eight" unicode="8" horiz-adv-x="501" 
d="M246 314q-35 0 -47.5 -23t-12.5 -82q0 -55 13 -79.5t47 -24.5q35 0 47.5 24t12.5 80q0 58 -13 81.5t-47 23.5zM246 597q-56 0 -56 -84q0 -86 56 -86q57 0 57 86q0 45 -14 64.5t-43 19.5zM126 380q-84 30 -84 160q0 77 53 127.5t151 50.5q106 0 155.5 -50t49.5 -128
q0 -63 -25.5 -104.5t-65.5 -55.5q98 -49 98 -171q0 -115 -53 -169.5t-159 -54.5t-159 54t-53 168q0 68 22.5 108.5t69.5 64.5z" />
    <glyph glyph-name="nine" unicode="9" horiz-adv-x="501" 
d="M249 590q-35 0 -45.5 -24.5t-10.5 -98.5q0 -113 56 -113q32 0 44.5 28.5t12.5 84.5q0 71 -12 97t-45 26zM46 174h152q0 -29 14.5 -46.5t41.5 -17.5q52 0 52 64v122q-42 -65 -114 -65q-67 0 -109 55t-42 169v23q0 240 208 240q209 0 209 -207v-334q0 -97 -56.5 -144.5
t-147.5 -47.5q-96 0 -152 46t-56 143z" />
    <glyph glyph-name="colon" unicode=":" horiz-adv-x="271" 
d="M61 379v167h157v-167h-157zM61 0v167h157v-167h-157z" />
    <glyph glyph-name="semicolon" unicode=";" horiz-adv-x="270" 
d="M53 371v167h157v-167h-157zM144 0h-91v167h157v-167q0 -59 -42.5 -97.5t-114.5 -38.5v52q40 0 65.5 22.5t25.5 61.5z" />
    <glyph glyph-name="less" unicode="&#x3c;" 
d="M151 250l288 -160v-113l-408 229v90l408 219v-106z" />
    <glyph glyph-name="equal" unicode="=" 
d="M15 203h446v-111h-446v111zM15 393h446v-111h-446v111z" />
    <glyph glyph-name="greater" unicode="&#x3e;" 
d="M327 242l-288 160v121l408 -227v-98l-408 -221v114z" />
    <glyph glyph-name="question" unicode="?" 
d="M144 0v167h157v-167h-157zM160 507h-152q0 41 9.5 77.5t32 72t66.5 56.5t106 21q98 0 156 -51.5t58 -121.5q0 -96 -58 -154q-48 -48 -62.5 -81t-14.5 -84v-15h-157v61q0 34 8 62.5t13 38.5t25 33t20 24q4 5 16.5 15t22.5 19.5t19 27.5t9 38q0 59 -58 59q-59 0 -59 -98z
" />
    <glyph glyph-name="at" unicode="@" horiz-adv-x="936" 
d="M558 361q0 35 -21.5 58t-55.5 23q-47 0 -79.5 -40.5t-32.5 -88.5q0 -38 20 -61.5t55 -23.5q49 0 81.5 41.5t32.5 91.5zM587 474l13 51h84q-62 -266 -62 -286t14 -20q41 0 74.5 47.5t33.5 121.5q0 114 -73.5 178t-188.5 64q-122 0 -197.5 -81.5t-75.5 -205.5
q0 -127 80.5 -205t206.5 -78q119 0 201 77h86q-50 -74 -126.5 -114.5t-166.5 -40.5q-157 0 -266.5 104t-109.5 259q0 153 108.5 258t261.5 105q136 0 237 -83.5t101 -213.5q0 -72 -28.5 -129.5t-69.5 -87.5t-79.5 -45.5t-67.5 -15.5q-22 0 -37.5 12.5t-16.5 37.5l-2 1
q-46 -51 -100 -51q-63 0 -109.5 49.5t-46.5 116.5q0 94 58 165.5t148 71.5q77 0 116 -62z" />
    <glyph glyph-name="A" unicode="A" horiz-adv-x="532" 
d="M161 718h207l159 -718h-170l-26 144h-132l-22 -144h-172zM216 273h92l-46 316h-1z" />
    <glyph glyph-name="B" unicode="B" horiz-adv-x="552" 
d="M217 589v-148h51q37 0 52.5 19t15.5 62q0 67 -68 67h-51zM217 312v-183h39q48 0 66 20t18 70q0 47 -18 70t-62 23h-43zM50 0v718h276q71 0 124 -45t53 -135q0 -66 -31.5 -105.5t-66.5 -46.5q53 -22 79 -62t26 -112q0 -102 -55 -157t-164 -55h-241z" />
    <glyph glyph-name="C" unicode="C" horiz-adv-x="552" 
d="M337 284h173v-67q0 -122 -56.5 -178t-177.5 -56q-120 0 -177 56t-57 179v313q0 90 58.5 146.5t175.5 56.5q116 0 175 -57t59 -147v-49h-173v65q0 26 -20 41t-43 15q-24 0 -41.5 -13.5t-17.5 -39.5v-358q0 -76 59 -76q63 0 63 74v95z" />
    <glyph glyph-name="D" unicode="D" horiz-adv-x="560" 
d="M50 0v718h241q114 0 166.5 -43.5t52.5 -138.5v-350q0 -186 -219 -186h-241zM223 589v-460h43q37 0 54 17.5t17 58.5v310q0 40 -17 57t-55 17h-42z" />
    <glyph glyph-name="E" unicode="E" horiz-adv-x="477" 
d="M50 0v718h402v-136h-229v-141h205v-136h-205v-169h229v-136h-402z" />
    <glyph glyph-name="F" unicode="F" horiz-adv-x="477" 
d="M223 305v-305h-173v718h402v-136h-229v-141h205v-136h-205z" />
    <glyph glyph-name="G" unicode="G" horiz-adv-x="539" 
d="M495 481h-165v69q0 52 -58 52q-30 0 -46.5 -14.5t-16.5 -38.5v-371q0 -30 19 -48t43 -18t41.5 17t17.5 47v81h-61v129h226v-386h-113l-7 61q-12 -35 -55 -56.5t-99 -21.5q-75 0 -127 49.5t-52 157.5v342q0 202 227 202q226 0 226 -202v-51z" />
    <glyph glyph-name="H" unicode="H" horiz-adv-x="559" 
d="M223 718v-277h113v277h173v-718h-173v305h-113v-305h-173v718h173z" />
    <glyph glyph-name="I" unicode="I" horiz-adv-x="273" 
d="M223 718v-718h-173v718h173z" />
    <glyph glyph-name="J" unicode="J" horiz-adv-x="500" 
d="M275 718h173v-565q0 -74 -57.5 -121t-150.5 -47q-97 0 -153 45.5t-56 121.5v90h159v-90q0 -16 13.5 -25.5t27.5 -9.5q15 0 29.5 9t14.5 25v567z" />
    <glyph glyph-name="K" unicode="K" horiz-adv-x="539" 
d="M215 718v-286l121 286h188l-159 -317l159 -401h-182l-80 250l-47 -83v-167h-165v718h165z" />
    <glyph glyph-name="L" unicode="L" horiz-adv-x="453" 
d="M223 718v-574h205v-144h-378v718h173z" />
    <glyph glyph-name="M" unicode="M" horiz-adv-x="748" 
d="M50 718h241l56 -291q5 -26 9.5 -66t9 -89t7.5 -72h2q2 14 11 105.5t15 121.5l56 291h241v-718h-165v252q0 178 9 313h-1l-107 -565h-120l-107 565h-1q9 -150 9 -312v-253h-165v718z" />
    <glyph glyph-name="N" unicode="N" horiz-adv-x="553" 
d="M50 718h167l147 -451h1q-2 31 -14.5 129.5t-12.5 142.5v179h165v-718h-167l-149 437h-1q3 -25 11 -81t13 -104t5 -82v-170h-165v718z" />
    <glyph glyph-name="O" unicode="O" horiz-adv-x="551" 
d="M276 734q116 0 174 -56.5t58 -146.5v-322q0 -226 -233 -226t-233 226v323q0 90 58.5 146t175.5 56zM275 602q-25 0 -42.5 -15t-17.5 -44v-364q0 -30 18 -47t42 -17t42 17t18 47v364q0 29 -18 44t-42 15z" />
    <glyph glyph-name="P" unicode="P" horiz-adv-x="553" 
d="M223 280v-280h-173v718h251q210 0 210 -219q0 -63 -18 -108t-49.5 -68t-66 -33t-76.5 -10h-78zM223 589v-180h31q37 0 60.5 21.5t23.5 70.5q0 50 -22.5 69t-64.5 19h-28z" />
    <glyph glyph-name="Q" unicode="Q" horiz-adv-x="551" 
d="M540 -31l-98 -82l-100 100q-38 -4 -66 -4q-114 0 -174 49.5t-60 172.5v327q0 92 55 147t178 55t178.5 -55.5t55.5 -147.5v-312q0 -111 -52 -165zM276 602q-25 0 -43 -16t-18 -45v-364q0 -30 17.5 -46t42.5 -16q24 0 42.5 16t18.5 46v364q0 29 -18.5 45t-41.5 16z" />
    <glyph glyph-name="R" unicode="R" horiz-adv-x="555" 
d="M223 280v-280h-173v718h272q84 0 136.5 -47t52.5 -134q0 -79 -22.5 -118.5t-75.5 -63.5q90 -26 90 -128v-137q0 -67 31 -67v-23h-152q-31 0 -41.5 23.5t-10.5 69.5v118q0 36 -15 52.5t-54 16.5h-38zM223 589v-180h44q71 0 71 90t-72 90h-43z" />
    <glyph glyph-name="S" unicode="S" horiz-adv-x="523" 
d="M40 239h158v-45q0 -46 16.5 -64t50.5 -18q26 0 41.5 18.5t15.5 51.5q0 31 -15.5 52t-50.5 42l-104 64q-102 62 -102 197q0 94 57.5 145.5t155.5 51.5q95 0 155 -54.5t60 -165.5v-12h-156v15q0 88 -61 88q-25 0 -39 -14.5t-14 -38.5q0 -29 12.5 -48t43.5 -38l107 -65
q53 -32 80 -76.5t27 -121.5q0 -110 -56.5 -165t-160.5 -55q-221 0 -221 203v53z" />
    <glyph glyph-name="T" unicode="T" horiz-adv-x="456" 
d="M311 582v-582h-159v582h-136v136h422v-136h-127z" />
    <glyph glyph-name="U" unicode="U" horiz-adv-x="561" 
d="M50 718h173v-534q0 -69 57 -69q58 0 58 69v534h173v-506q0 -125 -58 -177t-173 -52q-116 0 -173 52t-57 177v506z" />
    <glyph glyph-name="V" unicode="V" horiz-adv-x="539" 
d="M8 718h175l63 -379q4 -23 20 -198h2q2 22 5.5 70.5t6.5 82.5t6 47l69 377h175l-159 -718h-204z" />
    <glyph glyph-name="W" unicode="W" horiz-adv-x="749" 
d="M8 718h167l35 -374q3 -30 5.5 -114.5t3.5 -101.5h2q3 34 6.5 86l5.5 83.5t4 43.5l59 377h158l53 -374q2 -17 14 -212h2q1 18 2.5 65.5t3.5 85.5t5 61l41 374h159l-121 -718h-188l-39 354q-6 51 -13 238h-2q-10 -190 -16 -238l-44 -354h-182z" />
    <glyph glyph-name="X" unicode="X" horiz-adv-x="535" 
d="M15 718h167l83 -211l83 211h167l-152 -355l159 -363h-182l-75 219l-90 -219h-167l159 363z" />
    <glyph glyph-name="Y" unicode="Y" horiz-adv-x="539" 
d="M8 718h175l90 -227l90 227h167l-174 -399v-319h-173v319z" />
    <glyph glyph-name="Z" unicode="Z" horiz-adv-x="483" 
d="M45 718h394v-136l-216 -446h224v-136h-417v136l223 446h-208v136z" />
    <glyph glyph-name="bracketleft" unicode="[" horiz-adv-x="304" 
d="M71 -182v900h212v-90h-76v-720h77v-90h-213z" />
    <glyph glyph-name="backslash" unicode="\" horiz-adv-x="448" 
d="M317 0l-317 718h129l317 -718h-129z" />
    <glyph glyph-name="bracketright" unicode="]" horiz-adv-x="304" 
d="M20 718h218v-900h-219v90h83v720h-82v90z" />
    <glyph glyph-name="asciicircum" unicode="^" horiz-adv-x="483" 
d="M234 575l-129 -264l-105 45l174 363h121l165 -363l-105 -45z" />
    <glyph glyph-name="underscore" unicode="_" 
d="M0 -114v61h484v-61h-484z" />
    <glyph glyph-name="grave" unicode="`" horiz-adv-x="350" 
d="M0 764h206l106 -152h-137z" />
    <glyph glyph-name="a" unicode="a" horiz-adv-x="490" 
d="M288 267q-5 -7 -67 -45q-29 -18 -29 -68q0 -28 9.5 -40t32.5 -12q54 0 54 81v84zM192 363h-144q0 88 47.5 139t146.5 51q198 0 198 -155v-307q0 -63 12 -91h-146l-9 68q-20 -40 -47 -61.5t-78 -21.5q-132 0 -132 146q0 59 24 96t74 63l104 53q27 13 36.5 25t9.5 36
q0 43 -47 43q-49 0 -49 -65v-19z" />
    <glyph glyph-name="b" unicode="b" horiz-adv-x="486" 
d="M247 429q-45 0 -45 -66v-194q0 -63 45 -63t45 63v194q0 66 -45 66zM50 718h152v-228q34 63 116 63q55 0 90.5 -39t35.5 -109v-238q0 -88 -35 -135t-91 -47q-35 0 -70.5 16t-52.5 46v-47h-145v718z" />
    <glyph glyph-name="c" unicode="c" horiz-adv-x="476" 
d="M284 227h152v-30q0 -212 -197 -212q-94 0 -145.5 49t-51.5 145v169q0 205 198 205q196 0 196 -206v-15h-152v47q0 55 -44 55q-21 0 -33.5 -12.5t-12.5 -34.5v-227q0 -59 45 -59t45 59v67z" />
    <glyph glyph-name="d" unicode="d" horiz-adv-x="486" 
d="M239 429q-45 0 -45 -66v-194q0 -63 45 -63t45 63v194q0 66 -45 66zM284 490v228h152v-718h-136v61q-41 -76 -135 -76q-53 0 -88 46.5t-35 135.5v241q0 69 36.5 107t86.5 38q85 0 119 -63z" />
    <glyph glyph-name="e" unicode="e" horiz-adv-x="470" 
d="M428 250h-242v-83q0 -70 49 -70t49 70v32h144v-39q0 -89 -57 -132t-136 -43q-49 0 -91 16.5t-72 57.5t-30 102v219q0 60 30 101t71.5 56.5t91.5 15.5q79 0 136 -43t57 -132v-128zM186 348h98v19q0 43 -10.5 60.5t-38.5 17.5q-26 0 -37.5 -18.5t-11.5 -59.5v-19z" />
    <glyph glyph-name="f" unicode="f" horiz-adv-x="309" 
d="M76 0v432h-61v106h61v59q0 63 37 96.5t106 33.5h84v-114q-39 0 -54.5 -7t-15.5 -32v-36h70v-106h-70v-432h-157z" />
    <glyph glyph-name="g" unicode="g" horiz-adv-x="487" 
d="M285 369q0 60 -45 60q-46 0 -46 -60v-170q0 -61 46 -61q45 0 45 60v171zM291 538h146v-546q0 -175 -191 -175q-204 0 -204 160h152v-7q0 -45 46 -45q24 0 34.5 12t10.5 41v99q-44 -60 -118 -60q-53 0 -89 37.5t-36 112.5v247q0 65 39.5 102t93.5 37q36 0 68.5 -20.5
t47.5 -56.5v62z" />
    <glyph glyph-name="h" unicode="h" horiz-adv-x="486" 
d="M202 718v-216q40 51 113 51q52 0 86.5 -31t34.5 -91v-431h-152v379q0 50 -40 50q-42 0 -42 -50v-379h-152v718h152z" />
    <glyph glyph-name="i" unicode="i" horiz-adv-x="252" 
d="M202 538v-538h-152v538h152zM50 597v129h152v-129h-152z" />
    <glyph glyph-name="j" unicode="j" horiz-adv-x="262" 
d="M60 538h152v-562q0 -51 -11.5 -85t-33 -49t-40 -20t-43.5 -5h-75v113q31 0 41 10.5t10 52.5v545zM60 597v129h152v-129h-152z" />
    <glyph glyph-name="k" unicode="k" horiz-adv-x="483" 
d="M202 718v-352l93 172h171l-144 -212l150 -326h-157l-92 211l-21 -37v-174h-152v718h152z" />
    <glyph glyph-name="l" unicode="l" horiz-adv-x="252" 
d="M202 718v-718h-152v718h152z" />
    <glyph glyph-name="m" unicode="m" horiz-adv-x="720" 
d="M194 538v-57q21 35 54.5 53.5t68.5 18.5t63.5 -18.5t39.5 -53.5q16 35 49.5 53.5t73.5 18.5q52 0 89.5 -32.5t37.5 -89.5v-431h-152v379q0 50 -40 50q-42 0 -42 -50v-379h-152v379q0 50 -40 50q-42 0 -42 -50v-379h-152v538h144z" />
    <glyph glyph-name="n" unicode="n" horiz-adv-x="486" 
d="M185 538v-71h1q16 37 53.5 61.5t75.5 24.5q51 0 86 -29.5t35 -85.5v-438h-152v379q0 50 -40 50q-42 0 -42 -50v-379h-152v538h135z" />
    <glyph glyph-name="o" unicode="o" horiz-adv-x="478" 
d="M240 553q196 0 196 -206v-155q0 -207 -196 -207q-198 0 -198 206v157q0 205 198 205zM240 434q-46 0 -46 -56v-220q0 -57 46 -57q44 0 44 54v223q0 56 -44 56z" />
    <glyph glyph-name="p" unicode="p" horiz-adv-x="489" 
d="M247 429q-45 0 -45 -66v-194q0 -63 45 -63t45 63v194q0 66 -45 66zM202 48v-231h-152v721h137v-64q47 79 124 79q60 0 96.5 -44.5t36.5 -124.5v-246q0 -67 -39 -110t-94 -43q-60 0 -109 63z" />
    <glyph glyph-name="q" unicode="q" horiz-adv-x="489" 
d="M242 429q-45 0 -45 -66v-194q0 -63 45 -63t45 63v194q0 66 -45 66zM302 474v64h137v-721h-152v231q-49 -63 -109 -63q-55 0 -94 43t-39 110v246q0 80 36.5 124.5t96.5 44.5q77 0 124 -79z" />
    <glyph glyph-name="r" unicode="r" horiz-adv-x="332" 
d="M192 538v-78q27 54 54.5 73.5t65.5 19.5v-167q-62 0 -86 -24.5t-24 -82.5v-279h-152v538h142z" />
    <glyph glyph-name="s" unicode="s" horiz-adv-x="465" 
d="M39 168h144q0 -43 11.5 -62t37.5 -19q25 0 38 10.5t13 38.5q0 25 -13 38t-47 29l-86 40q-92 43 -92 157q0 54 30 90t71 49.5t89 13.5q72 0 124.5 -47.5t52.5 -116.5v-11h-134v19q0 22 -13 35t-31 13q-20 0 -32.5 -10.5t-12.5 -28.5q0 -26 14 -39t50 -30l84 -39
q90 -42 90 -147q0 -166 -196 -166q-192 0 -192 183z" />
    <glyph glyph-name="t" unicode="t" horiz-adv-x="318" 
d="M69 688h152v-150h82v-106h-82v-288q0 -21 20.5 -27.5t61.5 -6.5v-110q-54 -6 -123 -6q-50 0 -80.5 31t-30.5 96v311h-61v106h61v150z" />
    <glyph glyph-name="u" unicode="u" horiz-adv-x="486" 
d="M50 538h152v-384q0 -22 11 -35t30 -13q41 0 41 46v386h152v-538h-143v68l-1 -2q-27 -81 -121 -81q-121 0 -121 105v448z" />
    <glyph glyph-name="v" unicode="v" horiz-adv-x="433" 
d="M8 538h167l28 -267q7 -73 7 -173h2q3 112 14 173l47 267h151l-121 -538h-182z" />
    <glyph glyph-name="w" unicode="w" horiz-adv-x="636" 
d="M0 538h152l27 -243q1 -7 6 -88.5t5 -87.5h2q0 7 7.5 88t8.5 88l42 243h128l38 -241q9 -83 14 -178h2q8 116 14 176l30 243h152l-113 -538h-160l-29 171q-1 7 -7.5 105.5t-6.5 104.5h-2q0 -6 -7 -104t-8 -106l-30 -171h-167z" />
    <glyph glyph-name="x" unicode="x" horiz-adv-x="437" 
d="M15 538h160l44 -152l46 152h159l-121 -273l121 -265h-159l-46 160l-44 -160h-167l128 265z" />
    <glyph glyph-name="y" unicode="y" horiz-adv-x="445" 
d="M20 538h155l37 -244q2 -9 13 -190h2q2 21 6 67.5l7 78.5t5 44l37 244h147l-120 -577q-15 -74 -56.5 -106t-112.5 -32q-44 0 -66 5v110q10 -2 31 -2q36 0 36 31q0 10 -5 37.5t-17.5 85.5l-24 110.5l-34.5 157z" />
    <glyph glyph-name="z" unicode="z" horiz-adv-x="414" 
d="M31 0v113l167 304h-159v121h340v-113l-178 -304h178v-121h-348z" />
    <glyph glyph-name="braceleft" unicode="{" horiz-adv-x="315" 
d="M143 319q47 -6 65.5 -28.5t18.5 -78.5v-173q0 -60 15.5 -82t59.5 -41q-22 -2 -63 -2q-80 0 -114 27t-34 90v175q0 56 -13 76t-64 37q47 16 62 37t15 76v196q0 52 41 77.5t109 25.5q36 0 61 -5q-33 -6 -54 -33t-21 -57v-204q0 -60 -17.5 -81t-66.5 -32z" />
    <glyph glyph-name="bar" unicode="|" horiz-adv-x="236" 
d="M54 0v726h136v-726h-136z" />
    <glyph glyph-name="braceright" unicode="}" horiz-adv-x="326" 
d="M195 319q-82 9 -82 98v180q0 59 -15.5 81.5t-61.5 48.5q58 0 91.5 -3t64.5 -14.5t44 -35t13 -61.5v-204q0 -74 75 -90q-5 -3 -21 -10t-19.5 -9.5t-13.5 -11t-12.5 -17t-5.5 -24t-3 -36.5v-188q0 -54 -32.5 -83t-87.5 -29q-68 0 -93 4q48 19 62.5 40t14.5 76v167
q0 56 18.5 83t63.5 38z" />
    <glyph glyph-name="asciitilde" unicode="~" 
d="M31 219q41 121 127 121q36 0 98.5 -30.5t79.5 -30.5q37 0 73 69l52 -67q-55 -115 -129 -115q-32 0 -94.5 30.5t-81.5 30.5t-35 -17t-36 -58z" />
    <glyph glyph-name="sterling" unicode="&#xa3;" horiz-adv-x="536" 
d="M488 506h-150q0 56 -13 80t-46 24q-61 0 -61 -71q0 -50 31 -152h140v-85h-118q2 -12 2 -22q0 -86 -110 -178h1q52 23 95 23q23 0 61.5 -10t56.5 -10q42 0 88 31l32 -114q-55 -39 -117 -39q-35 0 -93.5 16t-83.5 16q-49 0 -114 -30l-46 106q93 80 93 167q0 26 -5 44h-88
v85h58q-42 98 -42 156q0 89 58.5 140t161.5 51q209 0 209 -228z" />
    <glyph glyph-name="currency" unicode="&#xa4;" 
d="M137 303q0 -44 31 -78.5t79 -34.5q55 0 83.5 33.5t28.5 79.5q0 47 -28.5 80t-83.5 33q-50 0 -80 -33.5t-30 -79.5zM46 432l-46 44l77 77l44 -46q52 34 126 34q81 0 124 -34l46 46l75 -77l-44 -44q36 -74 36 -131q0 -65 -36 -127l44 -46l-75 -75l-46 45q-53 -35 -122 -35
q-72 0 -128 35l-44 -45l-77 75l46 46q-34 57 -34 129q0 80 34 129z" />
    <glyph glyph-name="brokenbar" unicode="&#xa6;" horiz-adv-x="268" 
d="M80 -18v279h108v-279h-108zM80 430v278h108v-278h-108z" />
    <glyph glyph-name="section" unicode="&#xa7;" 
d="M288 198q29 21 29 48t-29 50l-113 90q-29 -27 -29 -55q0 -17 21 -35zM370 121q52 -59 52 -136q0 -84 -51 -125.5t-143 -41.5q-79 0 -132 53t-53 137h130v-8q0 -33 15.5 -51t37.5 -18q20 0 36.5 14.5t16.5 39.5q0 40 -26.5 73t-64 58l-75 51t-64 65t-26.5 87q0 42 19 81.5
t56 60.5q-24 17 -37 48t-13 63q0 63 53 112.5t134 49.5q91 0 136 -48t45 -117h-137v7q0 49 -44 49q-21 0 -33 -11t-12 -32q0 -23 26.5 -49.5t64.5 -54t76 -58t64.5 -71.5t26.5 -84q0 -54 -17 -88t-61 -56z" />
    <glyph glyph-name="copyright" unicode="&#xa9;" horiz-adv-x="797" 
d="M761 346q0 -165 -107 -264t-258 -99t-258 99t-107 264t107 263.5t258 98.5t258 -98.5t107 -263.5zM656 346q0 122 -76 200t-184 78q-110 0 -185 -77.5t-75 -200.5q0 -124 75 -201.5t185 -77.5q108 0 184 78t76 201zM496 291h86q-11 -71 -59 -111t-113 -40
q-89 0 -144 59.5t-55 149.5q0 91 53.5 149t143.5 58q67 0 113 -38t57 -109h-82q-13 63 -88 63q-46 0 -72 -32.5t-26 -88.5q0 -54 28 -91t72 -37q36 0 59.5 17.5t26.5 50.5z" />
    <glyph glyph-name="guillemotleft" unicode="&#xab;" 
d="M439 484v-128l-98 -52l98 -62v-128l-180 121v136zM211 484v-128l-98 -52l98 -62v-128l-180 121v136z" />
    <glyph glyph-name="logicalnot" unicode="&#xac;" horiz-adv-x="504" 
d="M347 17v168h-325v111h438v-279h-113z" />
    <glyph glyph-name="registered" unicode="&#xae;" horiz-adv-x="821" 
d="M353 315v-165h-84v391h146q80 0 120 -27t40 -91q0 -95 -94 -102l100 -171h-99l-91 165h-38zM353 475v-94h73q31 0 45.5 10t14.5 40q0 44 -75 44h-58zM777 345q0 -165 -106.5 -264t-257.5 -99q-152 0 -258.5 99t-106.5 264t106.5 264t258.5 99q151 0 257.5 -99t106.5 -264
zM672 345q0 122 -75.5 200.5t-183.5 78.5q-110 0 -185 -78t-75 -201t75 -201t185 -78q108 0 183.5 78.5t75.5 200.5z" />
    <glyph glyph-name="degree" unicode="&#xb0;" horiz-adv-x="384" 
d="M337 566q0 -60 -42 -102.5t-101 -42.5q-60 0 -102.5 42.5t-42.5 102.5q0 59 42 101.5t102 42.5q59 0 101.5 -42.5t42.5 -101.5zM235 566q0 17 -12.5 29.5t-29.5 12.5t-29.5 -12.5t-12.5 -29.5t12.5 -30t29.5 -13t29.5 13t12.5 30z" />
    <glyph glyph-name="plusminus" unicode="&#xb1;" horiz-adv-x="480" 
d="M24 336v111h160v114h111v-114h160v-111h-160v-121h-111v121h-160zM24 58v111h431v-111h-431z" />
    <glyph glyph-name="mu" unicode="&#xb5;" horiz-adv-x="486" 
d="M50 538h152v-384q0 -22 11 -35t30 -13q41 0 41 46v386h152v-538h-143v68h-1q-13 -40 -30.5 -61t-29.5 -21q-22 0 -30 17v-186h-152v721z" />
    <glyph glyph-name="mu" unicode="&#x3bc;" horiz-adv-x="486" 
d="M50 538h152v-384q0 -22 11 -35t30 -13q41 0 41 46v386h152v-538h-143v68h-1q-13 -40 -30.5 -61t-29.5 -21q-22 0 -30 17v-186h-152v721z" />
    <glyph glyph-name="paragraph" unicode="&#xb6;" horiz-adv-x="605" 
d="M577 734v-113h-39v-727h-136v727h-60v-727h-136v498h-7q-76 0 -117.5 45.5t-41.5 125.5q0 79 50.5 125t146.5 46h340z" />
    <glyph glyph-name="periodcentered" unicode="&#xb7;" horiz-adv-x="319" 
d="M83 156v167h157v-167h-157z" />
    <glyph glyph-name="periodcentered" unicode="&#x2219;" horiz-adv-x="319" 
d="M83 156v167h157v-167h-157z" />
    <glyph glyph-name="guillemotright" unicode="&#xbb;" 
d="M273 491l180 -113v-136l-180 -121v128l98 62l-98 52v128zM46 491l180 -113v-136l-180 -121v128l98 62l-98 52v128z" />
    <glyph glyph-name="afii10023" unicode="&#x401;" horiz-adv-x="477" 
d="M50 0v718h402v-136h-229v-141h205v-136h-205v-169h229v-136h-402zM77 761v103h128v-103h-128zM302 761v103h128v-103h-128z" />
    <glyph glyph-name="afii10051" unicode="&#x402;" horiz-adv-x="641" 
d="M311 582v-169q42 14 120 14q62 0 115 -52t53 -156q0 -219 -213 -219h-45v129q41 0 63 19t22 69q0 74 -50 74q-36 0 -65 -14v-277h-159v582h-136v136h422v-136h-127z" />
    <glyph glyph-name="afii10052" unicode="&#x403;" horiz-adv-x="477" 
d="M50 718h402v-136h-229v-582h-173v718zM452 927l-146 -160h-119l111 160h154z" />
    <glyph glyph-name="afii10053" unicode="&#x404;" horiz-adv-x="552" 
d="M510 486h-173v60q0 26 -20 41t-43 15q-24 0 -41.5 -14t-17.5 -40v-107h92v-136h-92v-115q0 -75 59 -75q63 0 63 74v74h173v-46q0 -122 -56.5 -178t-177.5 -56q-120 0 -177 56t-57 178v315q0 90 58.5 146t175.5 56q116 0 175 -57t59 -147v-44z" />
    <glyph glyph-name="afii10054" unicode="&#x405;" horiz-adv-x="523" 
d="M40 239h158v-45q0 -46 16.5 -64t50.5 -18q26 0 41.5 18.5t15.5 51.5q0 31 -15.5 52t-50.5 42l-104 64q-102 62 -102 197q0 94 57.5 145.5t155.5 51.5q95 0 155 -54.5t60 -165.5v-12h-156v15q0 88 -61 88q-25 0 -39 -14.5t-14 -38.5q0 -29 12.5 -48t43.5 -38l107 -65
q53 -32 80 -76.5t27 -121.5q0 -110 -56.5 -165t-160.5 -55q-221 0 -221 203v53z" />
    <glyph glyph-name="afii10055" unicode="&#x406;" horiz-adv-x="273" 
d="M223 718v-718h-173v718h173z" />
    <glyph glyph-name="afii10056" unicode="&#x407;" horiz-adv-x="273" 
d="M223 718v-718h-173v718h173zM-40 761v103h128v-103h-128zM185 761v103h128v-103h-128z" />
    <glyph glyph-name="afii10057" unicode="&#x408;" horiz-adv-x="500" 
d="M275 718h173v-565q0 -74 -57.5 -121t-150.5 -47q-97 0 -153 45.5t-56 121.5v90h159v-90q0 -16 13.5 -25.5t27.5 -9.5q15 0 29.5 9t14.5 25v567z" />
    <glyph glyph-name="afii10058" unicode="&#x409;" horiz-adv-x="895" 
d="M111 718h454v-277h78q42 0 76.5 -10.5t66 -34t49.5 -69t18 -108.5q0 -219 -210 -219h-251v582h-114v-247q0 -135 -18 -210t-53 -104t-96 -29q-45 0 -93 21v121q12 -6 42 -6t39 25q12 32 12 212v14v339zM565 312v-183h30q41 0 63 19t22 69t-23 72.5t-59 22.5h-33z" />
    <glyph glyph-name="afii10059" unicode="&#x40a;" horiz-adv-x="839" 
d="M223 718v-277h113v277h173v-277h78q42 0 76.5 -10.5t66 -34t49.5 -69t18 -108.5q0 -219 -210 -219h-251v312h-113v-312h-173v718h173zM509 312v-183h30q41 0 63 19t22 69t-23 72.5t-59 22.5h-33z" />
    <glyph glyph-name="afii10060" unicode="&#x40b;" horiz-adv-x="629" 
d="M311 582v-169q52 14 131 14q56 0 100.5 -41.5t44.5 -127.5v-258h-163v241q0 50 -48 50q-36 0 -65 -14v-277h-159v582h-136v136h422v-136h-127z" />
    <glyph glyph-name="afii10061" unicode="&#x40c;" horiz-adv-x="539" 
d="M215 718v-286l121 286h188l-159 -317l159 -401h-182l-80 250l-47 -83v-167h-165v718h165zM476 927l-146 -160h-119l111 160h154z" />
    <glyph glyph-name="afii10062" unicode="&#x40e;" horiz-adv-x="541" 
d="M11 718h181l65 -313q2 -8 9 -148h2q9 111 17 148l67 313h179l-154 -553q-29 -104 -69.5 -138.5t-131.5 -34.5q-65 0 -87 19v122q13 -5 43 -5q33 0 41 24zM120 889h66q6 -51 89 -51q36 0 56 10t29 41h64q0 -61 -44.5 -95t-108.5 -34q-144 0 -151 129z" />
    <glyph glyph-name="afii10145" unicode="&#x40f;" horiz-adv-x="559" 
d="M223 718v-582h113v582h173v-718h-167v-148h-125v148h-167v718h173z" />
    <glyph glyph-name="afii10017" unicode="&#x410;" horiz-adv-x="532" 
d="M161 718h207l159 -718h-170l-26 144h-132l-22 -144h-172zM216 273h92l-46 316h-1z" />
    <glyph glyph-name="afii10018" unicode="&#x411;" horiz-adv-x="553" 
d="M50 718h391v-129h-218v-148h78q42 0 76.5 -10.5t66 -34t49.5 -69t18 -108.5q0 -219 -210 -219h-251v718zM223 312v-183h30q41 0 63 19t22 69t-23 72.5t-59 22.5h-33z" />
    <glyph glyph-name="afii10019" unicode="&#x412;" horiz-adv-x="552" 
d="M217 589v-148h51q37 0 52.5 19t15.5 62q0 67 -68 67h-51zM217 312v-183h39q48 0 66 20t18 70q0 47 -18 70t-62 23h-43zM50 0v718h276q71 0 124 -45t53 -135q0 -66 -31.5 -105.5t-66.5 -46.5q53 -22 79 -62t26 -112q0 -102 -55 -157t-164 -55h-241z" />
    <glyph glyph-name="afii10020" unicode="&#x413;" horiz-adv-x="477" 
d="M50 718h402v-136h-229v-582h-173v718z" />
    <glyph glyph-name="afii10021" unicode="&#x414;" horiz-adv-x="625" 
d="M111 718h457v-582h37v-283h-168v147h-249v-147h-168v283h24q40 62 53.5 137.5t13.5 239.5v205zM395 136v446h-115v-135q0 -109 -12 -181t-43 -130h170z" />
    <glyph glyph-name="afii10022" unicode="&#x415;" horiz-adv-x="477" 
d="M50 0v718h402v-136h-229v-141h205v-136h-205v-169h229v-136h-402z" />
    <glyph glyph-name="afii10024" unicode="&#x416;" horiz-adv-x="813" 
d="M324 718h165v-286l121 286h188l-159 -317l159 -401h-182l-80 250l-47 -83v-167h-165v167l-47 83l-80 -250h-182l159 401l-159 317h188l121 -286v286z" />
    <glyph glyph-name="afii10025" unicode="&#x417;" horiz-adv-x="528" 
d="M189 499h-159q0 109 61 172t156 63q99 0 156.5 -55t57.5 -135q0 -66 -23.5 -104t-78.5 -62h2q43 -16 66.5 -32t41 -54.5t17.5 -99.5q0 -103 -61.5 -156t-167.5 -53q-44 0 -81.5 11t-71.5 35.5t-54 72t-20 113.5h159q0 -57 15.5 -80t45.5 -23q35 0 49 22t14 81
q0 50 -17.5 72t-58.5 22h-25v129h41q20 0 36 21.5t16 57.5q0 88 -58 88q-32 0 -45 -24.5t-13 -81.5z" />
    <glyph glyph-name="afii10026" unicode="&#x418;" horiz-adv-x="551" 
d="M50 718h165v-178q0 -44 -12 -142t-14 -131h1l146 451h165v-718h-165v167q0 46 15.5 152t16.5 118h-1l-149 -437h-168v718z" />
    <glyph glyph-name="afii10027" unicode="&#x419;" horiz-adv-x="551" 
d="M124 889h66q6 -51 89 -51q36 0 56 10t29 41h64q0 -61 -44.5 -95t-108.5 -34q-144 0 -151 129zM50 718h165v-178q0 -44 -12 -142t-14 -131h1l146 451h165v-718h-165v167q0 46 15.5 152t16.5 118h-1l-149 -437h-168v718z" />
    <glyph glyph-name="afii10028" unicode="&#x41a;" horiz-adv-x="539" 
d="M215 718v-286l121 286h188l-159 -317l159 -401h-182l-80 250l-47 -83v-167h-165v718h165z" />
    <glyph glyph-name="afii10029" unicode="&#x41b;" horiz-adv-x="615" 
d="M111 718h454v-718h-173v582h-114v-247q0 -135 -18 -210t-53 -104t-96 -29q-45 0 -93 21v121q12 -6 42 -6t39 25q12 32 12 212v14v339z" />
    <glyph glyph-name="afii10030" unicode="&#x41c;" horiz-adv-x="748" 
d="M50 718h241l56 -291q5 -26 9.5 -66t9 -89t7.5 -72h2q2 14 11 105.5t15 121.5l56 291h241v-718h-165v252q0 178 9 313h-1l-107 -565h-120l-107 565h-1q9 -150 9 -312v-253h-165v718z" />
    <glyph glyph-name="afii10031" unicode="&#x41d;" horiz-adv-x="559" 
d="M223 718v-277h113v277h173v-718h-173v305h-113v-305h-173v718h173z" />
    <glyph glyph-name="afii10032" unicode="&#x41e;" horiz-adv-x="551" 
d="M276 734q116 0 174 -56.5t58 -146.5v-322q0 -226 -233 -226t-233 226v323q0 90 58.5 146t175.5 56zM275 602q-25 0 -42.5 -15t-17.5 -44v-364q0 -30 18 -47t42 -17t42 17t18 47v364q0 29 -18 44t-42 15z" />
    <glyph glyph-name="afii10033" unicode="&#x41f;" horiz-adv-x="559" 
d="M50 718h459v-718h-173v582h-113v-582h-173v718z" />
    <glyph glyph-name="afii10034" unicode="&#x420;" horiz-adv-x="553" 
d="M223 280v-280h-173v718h251q210 0 210 -219q0 -63 -18 -108t-49.5 -68t-66 -33t-76.5 -10h-78zM223 589v-180h31q37 0 60.5 21.5t23.5 70.5q0 50 -22.5 69t-64.5 19h-28z" />
    <glyph glyph-name="afii10035" unicode="&#x421;" horiz-adv-x="552" 
d="M337 284h173v-67q0 -122 -56.5 -178t-177.5 -56q-120 0 -177 56t-57 179v313q0 90 58.5 146.5t175.5 56.5q116 0 175 -57t59 -147v-49h-173v65q0 26 -20 41t-43 15q-24 0 -41.5 -13.5t-17.5 -39.5v-358q0 -76 59 -76q63 0 63 74v95z" />
    <glyph glyph-name="afii10036" unicode="&#x422;" horiz-adv-x="456" 
d="M311 582v-582h-159v582h-136v136h422v-136h-127z" />
    <glyph glyph-name="afii10037" unicode="&#x423;" horiz-adv-x="541" 
d="M11 718h181l65 -313q2 -8 9 -148h2q9 111 17 148l67 313h179l-154 -553q-29 -104 -69.5 -138.5t-131.5 -34.5q-65 0 -87 19v122q13 -5 43 -5q33 0 41 24z" />
    <glyph glyph-name="afii10038" unicode="&#x424;" horiz-adv-x="805" 
d="M319 718h167v-69h51q105 0 166.5 -70.5t61.5 -215.5q0 -147 -61.5 -216.5t-166.5 -69.5h-51v-77h-167v77h-51q-105 0 -166.5 69.5t-61.5 216.5q0 145 62 215.5t166 70.5h51v69zM486 520v-314h35q45 0 65 38.5t20 118.5q0 79 -19.5 118t-63.5 39h-37zM319 206v314h-36
q-45 0 -64.5 -39t-19.5 -118q0 -157 86 -157h34z" />
    <glyph glyph-name="afii10039" unicode="&#x425;" horiz-adv-x="535" 
d="M15 718h167l83 -211l83 211h167l-152 -355l159 -363h-182l-75 219l-90 -219h-167l159 363z" />
    <glyph glyph-name="afii10040" unicode="&#x426;" horiz-adv-x="571" 
d="M223 718v-582h113v582h173v-582h37v-284h-169v148h-327v718h173z" />
    <glyph glyph-name="afii10041" unicode="&#x427;" horiz-adv-x="551" 
d="M42 718h173v-241q0 -50 48 -50q36 0 65 14v277h173v-718h-173v305q-52 -14 -131 -14q-57 0 -106 42.5t-49 128.5v256z" />
    <glyph glyph-name="afii10042" unicode="&#x428;" horiz-adv-x="841" 
d="M223 718v-582h114v582h167v-582h114v582h173v-718h-741v718h173z" />
    <glyph glyph-name="afii10043" unicode="&#x429;" horiz-adv-x="852" 
d="M223 718v-582h114v582h167v-582h114v582h173v-582h36v-284h-169v148h-608v718h173z" />
    <glyph glyph-name="afii10044" unicode="&#x42a;" horiz-adv-x="636" 
d="M0 718h306v-277h78q42 0 76.5 -10.5t66 -34t49.5 -69t18 -108.5q0 -219 -210 -219h-251v589h-133v129zM306 312v-183h30q41 0 63 19t22 69t-23 72.5t-59 22.5h-33z" />
    <glyph glyph-name="afii10045" unicode="&#x42b;" horiz-adv-x="803" 
d="M223 718v-277h78q42 0 76.5 -10.5t66 -34t49.5 -69t18 -108.5q0 -219 -210 -219h-251v718h173zM223 312v-183h30q41 0 63 19t22 69t-23 72.5t-59 22.5h-33zM753 718v-718h-173v718h173z" />
    <glyph glyph-name="afii10046" unicode="&#x42c;" horiz-adv-x="553" 
d="M223 718v-277h78q42 0 76.5 -10.5t66 -34t49.5 -69t18 -108.5q0 -219 -210 -219h-251v718h173zM223 312v-183h30q41 0 63 19t22 69t-23 72.5t-59 22.5h-33z" />
    <glyph glyph-name="afii10047" unicode="&#x42d;" horiz-adv-x="552" 
d="M215 486h-173v44q0 90 59 147t175 57q117 0 175.5 -56t58.5 -146v-315q0 -122 -57 -178t-177 -56q-121 0 -177.5 56t-56.5 178v46h173v-74q0 -74 63 -74q59 0 59 75v115h-92v136h92v107q0 26 -17.5 40t-41.5 14q-23 0 -43 -15t-20 -41v-60z" />
    <glyph glyph-name="afii10048" unicode="&#x42e;" horiz-adv-x="833" 
d="M223 441h101v91q0 90 58.5 146t175.5 56q116 0 174.5 -56.5t58.5 -146.5v-322q0 -226 -233 -226q-118 0 -176 58.5t-58 167.5v96h-101v-305h-173v718h173v-277zM557 602q-24 0 -42 -15t-18 -44v-364q0 -30 18 -47t42 -17t42.5 17t18.5 47v364q0 29 -18.5 44t-42.5 15z
" />
    <glyph glyph-name="afii10049" unicode="&#x42f;" horiz-adv-x="559" 
d="M336 276h-34l-102 -276h-184l135 317q-45 24 -73 76t-28 117q0 89 53 148.5t143 59.5h263v-718h-173v276zM336 405v184h-40q-34 0 -53.5 -24t-19.5 -65q0 -42 19.5 -68.5t51.5 -26.5h42z" />
    <glyph glyph-name="afii10065" unicode="&#x430;" horiz-adv-x="490" 
d="M288 267q-5 -7 -67 -45q-29 -18 -29 -68q0 -28 9.5 -40t32.5 -12q54 0 54 81v84zM192 363h-144q0 88 47.5 139t146.5 51q198 0 198 -155v-307q0 -63 12 -91h-146l-9 68q-20 -40 -47 -61.5t-78 -21.5q-132 0 -132 146q0 59 24 96t74 63l104 53q27 13 36.5 25t9.5 36
q0 43 -47 43q-49 0 -49 -65v-19z" />
    <glyph glyph-name="afii10066" unicode="&#x431;" horiz-adv-x="478" 
d="M163 458h10q41 68 130 68q61 0 97 -44t36 -125v-165q0 -207 -196 -207q-198 0 -198 206v190q0 114 47.5 197.5t129.5 99.5q52 10 74.5 18.5t26.5 22.5h84q-12 -53 -41 -76.5t-86 -37.5q-51 -13 -76 -44.5t-38 -102.5zM240 407q-46 0 -46 -53v-196q0 -57 46 -57
q44 0 44 54v198q0 54 -44 54z" />
    <glyph glyph-name="afii10067" unicode="&#x432;" horiz-adv-x="466" 
d="M194 432v-111h26q52 0 52 56q0 30 -12 42.5t-40 12.5h-26zM194 224v-118h34q54 0 54 55q0 63 -54 63h-34zM50 0v538h220q65 0 105.5 -35t40.5 -97q0 -52 -20.5 -81t-61.5 -44q48 -19 70 -49t22 -85q0 -61 -36.5 -104t-107.5 -43h-232z" />
    <glyph glyph-name="afii10068" unicode="&#x433;" horiz-adv-x="403" 
d="M50 538h337v-121h-185v-417h-152v538z" />
    <glyph glyph-name="afii10069" unicode="&#x434;" horiz-adv-x="530" 
d="M48 121q27 63 36 110.5t9 136.5v170h376v-417h43v-235h-144v114h-206v-114h-144v235h30zM317 417h-80v-85q0 -125 -43 -211h123v296z" />
    <glyph glyph-name="afii10070" unicode="&#x435;" horiz-adv-x="470" 
d="M428 250h-242v-83q0 -70 49 -70t49 70v32h144v-39q0 -89 -57 -132t-136 -43q-49 0 -91 16.5t-72 57.5t-30 102v219q0 60 30 101t71.5 56.5t91.5 15.5q79 0 136 -43t57 -132v-128zM186 348h98v19q0 43 -10.5 60.5t-38.5 17.5q-26 0 -37.5 -18.5t-11.5 -59.5v-19z" />
    <glyph glyph-name="afii10072" unicode="&#x436;" horiz-adv-x="700" 
d="M279 538h139v-172l93 172h171l-144 -212l150 -326h-157l-92 211l-21 -37v-174h-139v174l-21 37l-92 -211h-157l150 326l-144 212h171l93 -172v172z" />
    <glyph glyph-name="afii10073" unicode="&#x437;" horiz-adv-x="469" 
d="M187 363h-144q0 96 54.5 143t142.5 47q83 0 131 -40.5t48 -112.5q0 -41 -21.5 -73t-64.5 -46q51 -15 72.5 -45t21.5 -88q0 -78 -49.5 -120.5t-137.5 -42.5q-30 0 -57 4.5t-54.5 16t-47.5 30.5t-32.5 50.5t-12.5 72.5v27h144v-21q0 -64 47 -64q48 0 48 57q0 39 -13 53.5
t-43 14.5h-8v98h8q30 0 43 13t13 42q0 55 -44 55q-24 0 -34 -16t-10 -55z" />
    <glyph glyph-name="afii10074" unicode="&#x438;" horiz-adv-x="503" 
d="M50 538h139v-236l-16 -109v-3l131 348h149v-538h-139v237l17 110v2l-131 -349h-150v538z" />
    <glyph glyph-name="afii10075" unicode="&#x439;" horiz-adv-x="503" 
d="M101 704h66q5 -50 89 -50q36 0 56 9.5t29 40.5h64q0 -62 -44.5 -95t-108.5 -33q-144 0 -151 128zM50 538h139v-236l-16 -109v-3l131 348h149v-538h-139v237l17 110v2l-131 -349h-150v538z" />
    <glyph glyph-name="afii10076" unicode="&#x43a;" horiz-adv-x="483" 
d="M202 538v-172l93 172h171l-144 -212l150 -326h-157l-92 211l-21 -37v-174h-152v538h152z" />
    <glyph glyph-name="afii10077" unicode="&#x43b;" horiz-adv-x="523" 
d="M87 538h386v-538h-152v417h-86v-165q0 -149 -35 -206t-113 -57q-35 0 -76 11v108q13 -3 25 -3q34 0 42.5 39.5t8.5 171.5v222z" />
    <glyph glyph-name="afii10078" unicode="&#x43c;" horiz-adv-x="618" 
d="M50 538h188l52 -216q11 -51 19 -161h2q12 137 17 161l52 216h188v-538h-139v242q0 32 21 175h-1l-105 -417h-69l-101 417h-1q16 -152 16 -177v-240h-139v538z" />
    <glyph glyph-name="afii10079" unicode="&#x43d;" horiz-adv-x="486" 
d="M202 332h82v206h152v-538h-152v217h-82v-217h-152v538h152v-206z" />
    <glyph glyph-name="afii10080" unicode="&#x43e;" horiz-adv-x="478" 
d="M240 553q196 0 196 -206v-155q0 -207 -196 -207q-198 0 -198 206v157q0 205 198 205zM240 434q-46 0 -46 -56v-220q0 -57 46 -57q44 0 44 54v223q0 56 -44 56z" />
    <glyph glyph-name="afii10081" unicode="&#x43f;" horiz-adv-x="486" 
d="M50 538h386v-538h-152v417h-82v-417h-152v538z" />
    <glyph glyph-name="afii10082" unicode="&#x440;" horiz-adv-x="489" 
d="M247 429q-45 0 -45 -66v-194q0 -63 45 -63t45 63v194q0 66 -45 66zM202 48v-231h-152v721h137v-64q47 79 124 79q60 0 96.5 -44.5t36.5 -124.5v-246q0 -67 -39 -110t-94 -43q-60 0 -109 63z" />
    <glyph glyph-name="afii10083" unicode="&#x441;" horiz-adv-x="476" 
d="M284 227h152v-30q0 -212 -197 -212q-94 0 -145.5 49t-51.5 145v169q0 205 198 205q196 0 196 -206v-15h-152v47q0 55 -44 55q-21 0 -33.5 -12.5t-12.5 -34.5v-227q0 -59 45 -59t45 59v67z" />
    <glyph glyph-name="afii10084" unicode="&#x442;" horiz-adv-x="389" 
d="M11 538h362v-121h-105v-417h-152v417h-105v121z" />
    <glyph glyph-name="afii10085" unicode="&#x443;" horiz-adv-x="445" 
d="M20 538h155l37 -244q2 -9 13 -190h2q2 21 6 67.5l7 78.5t5 44l37 244h147l-120 -577q-15 -74 -56.5 -106t-112.5 -32q-44 0 -66 5v110q10 -2 31 -2q36 0 36 31q0 10 -5 37.5t-17.5 85.5l-24 110.5l-34.5 157z" />
    <glyph glyph-name="afii10086" unicode="&#x444;" horiz-adv-x="696" 
d="M465 429q-45 0 -45 -66v-194q0 -63 45 -63t45 63v194q0 66 -45 66zM276 -183v227q-49 -59 -109 -59q-52 0 -88.5 45.5t-36.5 105.5v244q0 81 33 127t82 46q75 0 119 -68v233h144v-233q39 68 115 68q52 0 85.5 -46t33.5 -127v-243q0 -61 -36 -106.5t-88 -45.5
q-60 0 -110 60v-228h-144zM231 429q-45 0 -45 -66v-194q0 -63 45 -63t45 63v194q0 66 -45 66z" />
    <glyph glyph-name="afii10087" unicode="&#x445;" horiz-adv-x="437" 
d="M15 538h160l44 -152l46 152h159l-121 -273l121 -265h-159l-46 160l-44 -160h-167l128 265z" />
    <glyph glyph-name="afii10088" unicode="&#x446;" horiz-adv-x="497" 
d="M202 538v-417h82v417h152v-417h43v-235h-144v114h-285v538h152z" />
    <glyph glyph-name="afii10089" unicode="&#x447;" horiz-adv-x="481" 
d="M45 538h152v-165q0 -22 11 -35t30 -13q27 0 41 7v206h152v-538h-152v222q-50 -18 -117 -18q-55 0 -86 31.5t-31 86.5v216z" />
    <glyph glyph-name="afii10090" unicode="&#x448;" horiz-adv-x="720" 
d="M202 538v-417h82v417h152v-417h82v417h152v-538h-620v538h152z" />
    <glyph glyph-name="afii10091" unicode="&#x449;" horiz-adv-x="731" 
d="M202 538v-417h82v417h152v-417h82v417h152v-417h43v-235h-144v114h-519v538h152z" />
    <glyph glyph-name="afii10092" unicode="&#x44a;" horiz-adv-x="532" 
d="M256 239v-127h24q66 0 66 61q0 66 -63 66h-27zM4 538h252v-187h65q83 0 127 -46t44 -127q0 -178 -171 -178h-217v423h-100v115z" />
    <glyph glyph-name="afii10093" unicode="&#x44b;" horiz-adv-x="709" 
d="M202 239v-127h24q66 0 66 61q0 66 -63 66h-27zM202 538v-187h65q83 0 127 -46t44 -127q0 -178 -171 -178h-217v538h152zM659 538v-538h-152v538h152z" />
    <glyph glyph-name="afii10094" unicode="&#x44c;" horiz-adv-x="478" 
d="M202 239v-127h24q66 0 66 61q0 66 -63 66h-27zM202 538v-187h65q83 0 127 -46t44 -127q0 -178 -171 -178h-217v538h152z" />
    <glyph glyph-name="afii10095" unicode="&#x44d;" horiz-adv-x="470" 
d="M186 352h-146q0 103 52.5 152t143.5 49q192 0 192 -206v-168q0 -96 -51 -145t-145 -49q-198 0 -198 212h152v-33q0 -63 45 -63t45 59v64h-65v98h65v65q0 22 -12.5 34.5t-33.5 12.5q-44 0 -44 -55v-27z" />
    <glyph glyph-name="afii10096" unicode="&#x44e;" horiz-adv-x="718" 
d="M202 538v-206h80v16q0 205 197 205t197 -206v-154q0 -208 -197 -208t-197 205v27h-80v-217h-152v538h152zM524 378q0 56 -44 56q-22 0 -34 -13.5t-12 -36.5v-227q0 -56 46 -56q44 0 44 53v224z" />
    <glyph glyph-name="afii10097" unicode="&#x44f;" horiz-adv-x="476" 
d="M274 0v187h-29l-76 -187h-154l98 210q-31 19 -54 60.5t-23 98.5q0 71 50 120t134 49h206v-538h-152zM274 295v131h-21q-65 0 -65 -61q0 -32 16.5 -51t49.5 -19h20z" />
    <glyph glyph-name="afii10071" unicode="&#x451;" horiz-adv-x="470" 
d="M428 250h-242v-83q0 -70 49 -70t49 70v32h144v-39q0 -89 -57 -132t-136 -43q-49 0 -91 16.5t-72 57.5t-30 102v219q0 60 30 101t71.5 56.5t91.5 15.5q79 0 136 -43t57 -132v-128zM186 348h98v19q0 43 -10.5 60.5t-38.5 17.5q-26 0 -37.5 -18.5t-11.5 -59.5v-19zM62 597
v103h128v-103h-128zM269 597v103h128v-103h-128z" />
    <glyph glyph-name="afii10099" unicode="&#x452;" horiz-adv-x="486" 
d="M50 718h152v-45h126v-75h-126v-96q40 51 113 51q52 0 86.5 -31t34.5 -91v-455q0 -51 -11.5 -85t-33 -49t-40 -20t-43.5 -5h-75v113q30 0 40.5 13.5t10.5 56.5v379q0 50 -40 50q-42 0 -42 -50v-379h-152v598h-54v75h54v45z" />
    <glyph glyph-name="afii10100" unicode="&#x453;" horiz-adv-x="403" 
d="M50 538h337v-121h-185v-417h-152v538zM381 734l-123 -144h-116l96 144h143z" />
    <glyph glyph-name="afii10101" unicode="&#x454;" horiz-adv-x="478" 
d="M284 197h152q0 -212 -197 -212q-94 0 -145.5 49t-51.5 145v170q0 204 197 204q191 0 191 -199h-146v25q0 55 -44 55q-21 0 -33.5 -12.5t-12.5 -34.5v-65h65v-98h-65v-64q0 -59 45 -59t45 63v33z" />
    <glyph glyph-name="afii10102" unicode="&#x455;" horiz-adv-x="465" 
d="M39 168h144q0 -43 11.5 -62t37.5 -19q25 0 38 10.5t13 38.5q0 25 -13 38t-47 29l-86 40q-92 43 -92 157q0 54 30 90t71 49.5t89 13.5q72 0 124.5 -47.5t52.5 -116.5v-11h-134v19q0 22 -13 35t-31 13q-20 0 -32.5 -10.5t-12.5 -28.5q0 -26 14 -39t50 -30l84 -39
q90 -42 90 -147q0 -166 -196 -166q-192 0 -192 183z" />
    <glyph glyph-name="afii10103" unicode="&#x456;" horiz-adv-x="252" 
d="M202 538v-538h-152v538h152zM50 597v129h152v-129h-152z" />
    <glyph glyph-name="afii10104" unicode="&#x457;" horiz-adv-x="292" 
d="M222 538v-538h-152v538h152zM-29 597v103h128v-103h-128zM193 597v103h128v-103h-128z" />
    <glyph glyph-name="afii10105" unicode="&#x458;" horiz-adv-x="262" 
d="M60 538h152v-562q0 -51 -11.5 -85t-33 -49t-40 -20t-43.5 -5h-75v113q31 0 41 10.5t10 52.5v545zM60 597v129h152v-129h-152z" />
    <glyph glyph-name="afii10106" unicode="&#x459;" horiz-adv-x="749" 
d="M87 538h386v-187h65q83 0 127 -46t44 -127q0 -178 -171 -178h-217v417h-86v-165q0 -149 -35 -206t-113 -57q-35 0 -76 11v108q13 -3 25 -3q34 0 42.5 39.5t8.5 171.5v222zM473 239v-127h24q66 0 66 61q0 66 -63 66h-27z" />
    <glyph glyph-name="afii10107" unicode="&#x45a;" horiz-adv-x="712" 
d="M202 351h82v187h152v-187h65q83 0 127 -46t44 -127q0 -178 -171 -178h-217v239h-82v-239h-152v538h152v-187zM436 239v-127h24q66 0 66 61q0 66 -63 66h-27z" />
    <glyph glyph-name="afii10108" unicode="&#x45b;" horiz-adv-x="486" 
d="M50 718h152v-45h126v-75h-126v-96q40 51 113 51q52 0 86.5 -31t34.5 -91v-431h-152v379q0 50 -40 50q-42 0 -42 -50v-379h-152v598h-54v75h54v45z" />
    <glyph glyph-name="afii10109" unicode="&#x45c;" horiz-adv-x="483" 
d="M202 538v-172l93 172h171l-144 -212l150 -326h-157l-92 211l-21 -37v-174h-152v538h152zM418 734l-123 -144h-116l96 144h143z" />
    <glyph glyph-name="afii10110" unicode="&#x45e;" horiz-adv-x="445" 
d="M78 704h66q5 -50 89 -50q36 0 56 9.5t29 40.5h64q0 -62 -44.5 -95t-108.5 -33q-144 0 -151 128zM20 538h155l37 -244q2 -9 13 -190h2q2 21 6 67.5l7 78.5t5 44l37 244h147l-120 -577q-15 -74 -56.5 -106t-112.5 -32q-44 0 -66 5v110q10 -2 31 -2q36 0 36 31q0 10 -5 37.5
t-17.5 85.5l-24 110.5l-34.5 157z" />
    <glyph glyph-name="afii10193" unicode="&#x45f;" horiz-adv-x="486" 
d="M202 538v-417h82v417h152v-538h-131v-114h-124v114h-131v538h152z" />
    <glyph glyph-name="afii10050" unicode="&#x490;" horiz-adv-x="477" 
d="M50 718h270v102h132v-238h-229v-582h-173v718z" />
    <glyph glyph-name="afii10098" unicode="&#x491;" horiz-adv-x="403" 
d="M50 538h227v112h110v-233h-185v-417h-152v538z" />
    <glyph glyph-name="endash" unicode="&#x2013;" horiz-adv-x="504" 
d="M6 185v111h492v-111h-492z" />
    <glyph glyph-name="emdash" unicode="&#x2014;" horiz-adv-x="960" 
d="M0 185v111h952v-111h-952z" />
    <glyph glyph-name="quoteleft" unicode="&#x2018;" horiz-adv-x="230" 
d="M53 431v166q0 62 41 95.5t111 33.5v-53q-84 0 -84 -91h84v-151h-152z" />
    <glyph glyph-name="quoteright" unicode="&#x2019;" horiz-adv-x="239" 
d="M137 567h-84v151h152v-166q0 -58 -40 -93.5t-112 -35.5v53q39 0 61.5 25t22.5 66z" />
    <glyph glyph-name="quotesinglbase" unicode="&#x201a;" horiz-adv-x="326" 
d="M167 0h-91v167h157v-167q0 -59 -42.5 -97.5t-114.5 -38.5v52q40 0 65.5 22.5t25.5 61.5z" />
    <glyph glyph-name="quotedblleft" unicode="&#x201c;" horiz-adv-x="459" 
d="M279 431v166q0 62 41 95.5t111 33.5v-53q-84 0 -84 -91h84v-151h-152zM53 431v166q0 62 41 95.5t111 33.5v-53q-84 0 -84 -91h84v-151h-152z" />
    <glyph glyph-name="quotedblright" unicode="&#x201d;" horiz-adv-x="463" 
d="M353 567h-84v151h152v-166q0 -58 -40 -93.5t-112 -35.5v53q39 0 61.5 25t22.5 66zM126 567h-84v151h152v-166q0 -58 -40 -93.5t-112 -35.5v53q39 0 61.5 25t22.5 66z" />
    <glyph glyph-name="quotedblbase" unicode="&#x201e;" horiz-adv-x="463" 
d="M353 0h-91v167h157v-167q0 -59 -42.5 -97.5t-114.5 -38.5v52q40 0 65.5 22.5t25.5 61.5zM126 0h-91v167h157v-167q0 -59 -42.5 -97.5t-114.5 -38.5v52q40 0 65.5 22.5t25.5 61.5z" />
    <glyph glyph-name="dagger" unicode="&#x2020;" horiz-adv-x="500" 
d="M177 734h144v-220h136v-111h-136v-550h-144v550h-136v111h136v220z" />
    <glyph glyph-name="bullet" unicode="&#x2022;" horiz-adv-x="418" 
d="M23 368q0 76 53 129t130 53q75 0 128 -54t53 -126t-53 -128t-128 -56t-129 55.5t-54 125.5v1z" />
    <glyph glyph-name="ellipsis" unicode="&#x2026;" horiz-adv-x="929" 
d="M68 0v167h157v-167h-157zM391 0v167h157v-167h-157zM714 0v167h157v-167h-157z" />
    <glyph glyph-name="perthousand" unicode="&#x2030;" horiz-adv-x="1161" 
d="M174 628q-24 0 -31 -23.5t-7 -74.5q0 -48 7.5 -73.5t30.5 -25.5q22 0 29.5 25.5t7.5 73.5q0 51 -7 74.5t-30 23.5zM174 711q80 0 119 -43t39 -138t-39 -138.5t-119 -43.5t-119.5 43.5t-39.5 138.5t39.5 138t119.5 43zM628 272q-24 0 -31 -23.5t-7 -74.5q0 -48 7.5 -73.5
t30.5 -25.5q22 0 29.5 25.5t7.5 73.5q0 51 -7 74.5t-30 23.5zM628 355q80 0 119 -43t39 -138t-39 -138.5t-119 -43.5t-119.5 43.5t-39.5 138.5t39.5 138t119.5 43zM197 -23l325 742h82l-324 -742h-83zM982 272q-24 0 -31 -23.5t-7 -74.5q0 -48 7.5 -73.5t30.5 -25.5
q22 0 29.5 25.5t7.5 73.5q0 51 -7 74.5t-30 23.5zM982 355q80 0 119 -43t39 -138t-39 -138.5t-119 -43.5t-119.5 43.5t-39.5 138.5t39.5 138t119.5 43z" />
    <glyph glyph-name="guilsinglleft" unicode="&#x2039;" horiz-adv-x="252" 
d="M211 484v-128l-98 -52l98 -62v-128l-180 121v136z" />
    <glyph glyph-name="guilsinglright" unicode="&#x203a;" horiz-adv-x="252" 
d="M31 484l180 -113v-136l-180 -121v128l98 62l-98 52v128z" />
    <glyph glyph-name="Euro" unicode="&#x20ac;" horiz-adv-x="501" 
d="M460 685v-132q-34 40 -109 40q-103 0 -119 -121h200l-29 -93h-181v-26v-31h163l-29 -93h-123q16 -118 118 -118q71 0 109 36v-131q-36 -30 -135 -30q-203 0 -236 243h-73l29 93h35q-1 8 -1 30q0 18 1 27h-64l29 93h42q37 246 238 246q90 0 135 -33z" />
    <glyph glyph-name="afii61352" unicode="&#x2116;" horiz-adv-x="914" 
d="M50 718h167l147 -451h2q-2 27 -15 127t-13 145v179h165v-718h-168l-149 437h-1q2 -21 11 -81t14 -107.5t5 -81.5v-167h-165v718zM697 448q-24 0 -31 -23.5t-7 -74.5q0 -48 7.5 -73.5t30.5 -25.5q22 0 29.5 25.5t7.5 73.5q0 51 -7 74.5t-30 23.5zM697 531q80 0 119 -43
t39 -138t-39 -138.5t-119 -43.5t-119.5 43.5t-39.5 138.5t39.5 138t119.5 43zM552 51v80h293v-80h-293z" />
    <glyph glyph-name="trademark" unicode="&#x2122;" horiz-adv-x="960" 
d="M591 690l91 -240l89 240h146v-396h-101v270h-2l-94 -270h-78l-94 270h-2v-270h-101v396h146zM370 690v-82h-110v-314h-108v314h-110v82h328z" />
    </font>
</defs>
</svg>
